{"title":"Street Fighter Assassins Fist 2014 DVDRip x264 AC3 MiLLENiUM","uid":10797926,"size":1488480430,"categoryP":"video","categoryS":"movies_dvdr","magnet":"?xt=urn:btih:12008043e86a3f9a780f3db579e757e73c90c8ef&amp;dn=+Street+Fighter+Assassins+Fist+2014+DVDRip+x264+AC3+MiLLENiUM+&amp;tr=udp%3A%2F%2Ftracker.openbittorrent.com%3A80&amp;tr=udp%3A%2F%2Fopen.demonii.com%3A1337&amp;tr=udp%3A%2F%2Ftracker.coppersurfer.tk%3A6969&amp;tr=udp%3A%2F%2Fexodus.desync.com%3A6969","seeders":6,"leechers":2,"uploader":"SBXero","files":3,"time":1408311733,"description":"\nStreet Fighter Assassins Fist 2014 DVDRip x264 AC3-MiLLENiUM\n\nGeneral\nSource: PAL.DVD5-NLToppers [THANKS]\nIMDb Information: http://www.imdb.com/title/tt3069212/\nSample Included: yes\n\nGeneral\nComplete name: Street Fighter Assassins Fist 2014 DVDRip x264 AC3-MiLLENiUM.mkv\nFormat: Matroska\nFormat version: Version 2\nFile size: 1.36 GiB\nDuration: 2h 26mn\nOverall bit rate mode: Variable\nOverall bit rate: 1 332 Kbps\nEncoded date: UTC 2014-08-17 15:14:43\nWriting application: mkvmerge v7.1.0 ('Good Love') 32bit built on Jul 27 2014 12:59:18\nWriting library: libebml v1.3.0 + libmatroska v1.4.1\n\nVideo\nID: 1\nFormat: AVC\nFormat/Info: Advanced Video Codec\nFormat profile: &lt;a class=&quot;__cf_email__&quot; href=&quot;/cdn-cgi/l/email-protection&quot; data-cfemail=&quot;c58daca2ad8589f1ebf4&quot;&gt;[email&amp;#160;protected]&lt;/a&gt;&lt;script cf-hash='f9e31' type=&quot;text/javascript&quot;&gt;\n/* &lt;![CDATA[ */!function(){try{var t=&quot;currentScript&quot;in document?document.currentScript:function(){for(var t=document.getElementsByTagName(&quot;script&quot;),e=t.length;e--;)if(t[e].getAttribute(&quot;cf-hash&quot;))return t[e]}();if(t&amp;&amp;t.previousSibling){var e,r,n,i,c=t.previousSibling,a=c.getAttribute(&quot;data-cfemail&quot;);if(a){for(e=&quot;&quot;,r=parseInt(a.substr(0,2),16),n=2;a.length-n;n+=2)i=parseInt(a.substr(n,2),16)^r,e+=String.fromCharCode(i);e=document.createTextNode(e),c.parentNode.replaceChild(e,c)}}}catch(u){}}();/* ]]&gt; */&lt;/script&gt;\nFormat settings, CABAC: Yes\nFormat settings, ReFrames: 3 frames\nCodec ID: V_MPEG4/ISO/AVC\nDuration: 2h 26mn\nBit rate mode: Variable\nBit rate: 858 Kbps\nMaximum bit rate: 40.0 Mbps\nWidth: 720 pixels\nHeight: 304 pixels\nDisplay aspect ratio: 2.35:1\nFrame rate mode: Constant\nFrame rate: 25.000 fps\nColor space: YUV\nChroma subsampling: 4:2:0\nBit depth: 8 bits\nScan type: Progressive\nBits/(Pixel*Frame): 0.157\nStream size: 898 MiB (64%)\nWriting library: x264 core 142 r2453 ea0ca51\n\nAudio\nID: 2\nFormat: AC-3\nFormat/Info: Audio Coding 3\nMode extension: CM (complete main)\nFormat settings, Endianness: Big\nCodec ID: A_AC3\nDuration: 2h 26mn\nBit rate mode: Constant\nBit rate: 448 Kbps\nChannel(s): 6 channels\nChannel positions: Front: L C R, Side: L R, LFE\nSampling rate: 48.0 KHz\nBit depth: 16 bits\nCompression mode: Lossy\nStream size: 469 MiB (34%)\nLanguage: English\nDefault: Yes\nForced: No Plot\nA multi-layered series that looks back to the formative years of Ryu and Ken as they live a traditional warrior's life in secluded Japan. The boys are, unknowingly, the last practitioners of the ancient fighting style known as &quot;Ansatsuken&quot; (Assassin's Fist)\n\nScreenshots \n &lt;a href=&quot;\nhttp://imgextra.biz/viewer.php?file=j0n17jgcow1qm27ww29r.png&quot; rel=&quot;nofollow&quot; target=&quot;_NEW&quot;&gt;\nhttp://imgextra.biz/viewer.php?file=j0n17jgcow1qm27ww29r.png&lt;/a&gt; &lt;a href=&quot;\nhttp://imgextra.biz/viewer.php?file=hcwj0p0j88ec8i0ox5n.png&quot; rel=&quot;nofollow&quot; target=&quot;_NEW&quot;&gt;\nhttp://imgextra.biz/viewer.php?file=hcwj0p0j88ec8i0ox5n.png&lt;/a&gt; &lt;a href=&quot;\nhttp://imgextra.biz/viewer.php?file=ugqp52axocuao7k7syyz.png&quot; rel=&quot;nofollow&quot; target=&quot;_NEW&quot;&gt;\nhttp://imgextra.biz/viewer.php?file=ugqp52axocuao7k7syyz.png&lt;/a&gt; &lt;a href=&quot;\nhttp://imgextra.biz/viewer.php?file=w0zc3fxsahb5ryvrtvs.png&quot; rel=&quot;nofollow&quot; target=&quot;_NEW&quot;&gt;\nhttp://imgextra.biz/viewer.php?file=w0zc3fxsahb5ryvrtvs.png&lt;/a&gt; &lt;a href=&quot;\nhttp://imgextra.biz/viewer.php?file=66ppie27vivyiwtod.png&quot; rel=&quot;nofollow&quot; target=&quot;_NEW&quot;&gt;\nhttp://imgextra.biz/viewer.php?file=66ppie27vivyiwtod.png&lt;/a&gt;","torrent":{"xt":"urn:btih:12008043e86a3f9a780f3db579e757e73c90c8ef","amp;dn":"+Street+Fighter+Assassins+Fist+2014+DVDRip+x264+AC3+MiLLENiUM+","amp;tr":["udp%3A%2F%2Ftracker.openbittorrent.com%3A80","udp%3A%2F%2Fopen.demonii.com%3A1337","udp%3A%2F%2Ftracker.coppersurfer.tk%3A6969","udp%3A%2F%2Fexodus.desync.com%3A6969"],"infoHash":"12008043e86a3f9a780f3db579e757e73c90c8ef","infoHashBuffer":{"type":"Buffer","data":[18,0,128,67,232,106,63,154,120,15,61,181,121,231,87,231,60,144,200,239]},"announce":[],"urlList":[]}}